SplineFontDB: 3.2
FontName: DSCLogo
FullName: DSCLogo
FamilyName: DSCLogo
Weight: Regular
Copyright: 
Version: 001.000
ItalicAngle: 0
UnderlinePosition: -292
UnderlineWidth: 150
Ascent: 1638
Descent: 410
InvalidEm: 0
LayerCount: 2
Layer: 0 0 "Back" 1
Layer: 1 0 "Fore" 0
XUID: [1021 311 2078164557 6788]
FSType: 0
OS2Version: 0
OS2_WeightWidthSlopeOnly: 0
OS2_UseTypoMetrics: 1
CreationTime: 1635271740
ModificationTime: 1636848134
PfmFamily: 17
TTFWeight: 400
TTFWidth: 5
LineGap: 0
VLineGap: 0
OS2TypoAscent: 1864
OS2TypoAOffset: 1
OS2TypoDescent: -792
OS2TypoDOffset: 1
OS2TypoLinegap: 205
OS2WinAscent: 2361
OS2WinAOffset: 1
OS2WinDescent: 792
OS2WinDOffset: 1
HheadAscent: 2361
HheadAOffset: 1
HheadDescent: -792
HheadDOffset: 1
OS2SubXSize: 1434
OS2SubYSize: 1331
OS2SubXOff: 0
OS2SubYOff: 283
OS2SupXSize: 1434
OS2SupYSize: 1331
OS2SupXOff: 0
OS2SupYOff: 977
OS2StrikeYSize: 102
OS2StrikeYPos: 512
OS2Vendor: 'PfEd'
Lookup: 4 0 0 "Latin Ligatures" { "Latin Ligatures-1"  } ['liga' ('DFLT' <'dflt' > 'latn' <'dflt' > ) ]
MarkAttachClasses: 1
DEI: 91125
LangName: 1033
GaspTable: 3 8 2 16 1 65535 3 0
Encoding: Custom
Compacted: 1
UnicodeInterp: none
NameList: AGL For New Fonts
DisplaySize: -48
AntiAlias: 1
FitToEm: 0
WinInfo: 0 38 13
BeginPrivate: 0
EndPrivate
TeXData: 1 0 0 260096 130048 86698 548864 -1048576 86698 783286 444596 497025 792723 393216 433062 380633 303038 157286 324010 404750 52429 2506097 1059062 262144
BeginChars: 257 96

StartChar: A
Encoding: 65 65 0
Width: 1477
VWidth: 2149
Flags: HW
HStem: 575 249<512 894> 2066 20G<695.867 710.142>
LayerCount: 2
Fore
SplineSet
424 575 m 1
 203 -3 l 5
 -42 -3 l 1
 703 2086 l 1
 1449 -3 l 1
 1204 -3 l 1
 982 575 l 1
 424 575 l 1
703 1370 m 1
 512 824 l 1
 894 824 l 1
 703 1370 l 1
EndSplineSet
EndChar

StartChar: B
Encoding: 66 66 1
Width: 1569
VWidth: 2104
Flags: HW
HStem: -48 251<287 963.895> 1084 249<287 758.682> 1661 251<287 775.819>
VStem: 61 226<203 1084 1333 1661> 818 245<1392.75 1617.71> 1220 223<455.285 830.088>
LayerCount: 2
Fore
SplineSet
703 1081 m 1
 703 1084 l 1
 287 1084 l 1
 287 203 l 1
 783 203 l 1
 899 203 997 251 1083 331 c 0
 1176 418 1220 520 1220 642 c 0
 1220 765 1176 866 1083 953 c 0
 992 1038 885 1081 757 1081 c 1
 703 1081 l 1
287 1661 m 1
 287 1333 l 1
 649 1333 l 1
 697 1340 732 1356 760 1379 c 0
 798 1412 818 1451 818 1507 c 0
 818 1566 797 1607 757 1631 c 0
 727 1650 677 1661 608 1661 c 2
 287 1661 l 1
840 -41 m 1
 840 -48 l 1
 61 -48 l 1
 61 1912 l 1
 710 1912 l 1
 710 1905 l 1
 807 1891 890 1853 953 1789 c 0
 1026 1714 1063 1619 1063 1509 c 0
 1063 1421 1040 1339 992 1271 c 1
 1091 1238 1180 1185 1254 1111 c 0
 1380 980 1443 817 1443 631 c 0
 1443 446 1380 283 1254 152 c 1
 1142 42 1001 -23 840 -41 c 1
EndSplineSet
EndChar

StartChar: C
Encoding: 67 67 2
Width: 2009
VWidth: 2104
Flags: HW
HStem: -57 245<793.891 1313.84> 1669 260<785.894 1300.6>
VStem: 51 237<680.983 1170.68>
LayerCount: 2
Fore
SplineSet
253 327 m 1
 120 507 51 709 51 928 c 0
 51 971 53 1015 59 1060 c 0
 91 1329 212 1551 427 1719 c 0
 610 1859 815 1929 1039 1929 c 0
 1084 1929 1129 1927 1175 1921 c 0
 1305 1904 1428 1863 1541 1800 c 2
 1603 1765 l 1
 1414 1575 l 1
 1382 1591 l 2
 1306 1628 1227 1650 1143 1661 c 0
 1108 1665 1073 1669 1040 1669 c 0
 872 1669 721 1617 582 1512 c 0
 415 1385 321 1224 295 1020 c 0
 290 986 288 922 288 920 c 0
 288 757 342 612 450 476 c 0
 579 314 746 221 955 195 c 0
 990 191 1057 188 1059 188 c 0
 1227 188 1378 239 1517 344 c 0
 1655 449 1743 581 1786 743 c 2
 1796 780 l 1
 2039 780 l 1
 2025 719 l 2
 1976 489 1860 298 1672 151 c 0
 1490 12 1285 -57 1061 -57 c 0
 1016 -57 971 -54 925 -48 c 0
 649 -14 422 112 253 327 c 1
EndSplineSet
EndChar

StartChar: D
Encoding: 68 68 3
Width: 1309
VWidth: 2104
Flags: HW
HStem: -43 195<257 496.294> 1713 204<257 510.048>
VStem: 31 226<152 1713> 1001 228<667.478 1200.34>
LayerCount: 2
Fore
SplineSet
257 1713 m 1
 257 152 l 1
 460 152 629 238 771 379 c 0
 926 532 1001 715 1001 934 c 0
 1001 1152 927 1335 777 1493 c 0
 698 1575 609 1634 507 1670 c 0
 431 1697 347 1713 257 1713 c 1
31 -43 m 1
 31 1917 l 1
 243 1917 l 1
 545 1917 794 1807 972 1633 c 1
 1146 1441 1229 1203 1229 934 c 0
 1229 664 1146 428 968 241 c 1
 788 74 553 -43 272 -43 c 1
 31 -43 l 1
EndSplineSet
EndChar

StartChar: E
Encoding: 69 69 4
Width: 1295
VWidth: 2104
Flags: HW
HStem: -48 251<256 1198> 531 250<256 559> 1661 251<256 1198>
VStem: 30 226<203 531 781 1661>
LayerCount: 2
Fore
SplineSet
30 1912 m 1
 1198 1912 l 1
 1198 1661 l 1
 256 1661 l 1
 256 781 l 1
 559 781 l 1
 559 531 l 1
 256 531 l 1
 256 203 l 1
 1198 203 l 1
 1198 -48 l 5
 30 -48 l 1
 30 1912 l 1
EndSplineSet
EndChar

StartChar: F
Encoding: 70 70 5
Width: 929
VWidth: 2104
Flags: HW
HStem: -48 21G<71 298> 531 250<298 653> 1661 251<298 899>
VStem: 71 227<-48 531 781 1661>
LayerCount: 2
Fore
SplineSet
298 1661 m 1
 298 781 l 1
 653 781 l 1
 653 531 l 1
 298 531 l 1
 298 -48 l 1
 71 -48 l 1
 71 1912 l 1
 899 1912 l 1
 899 1661 l 1
 298 1661 l 1
EndSplineSet
EndChar

StartChar: G
Encoding: 71 71 6
Width: 2143
VWidth: 2104
Flags: HW
HStem: -57 207<818.258 1325.58> 529 250<1262 1722> 1669 260<806.641 1320.38>
VStem: 71 237<664.909 1166.55>
LayerCount: 2
Fore
SplineSet
273 327 m 1
 140 507 71 709 71 928 c 0
 71 971 73 1015 79 1060 c 0
 111 1329 232 1551 447 1719 c 0
 630 1859 835 1929 1059 1929 c 0
 1104 1929 1149 1927 1195 1921 c 0
 1325 1904 1447 1863 1561 1800 c 2
 1624 1765 l 1
 1435 1575 l 1
 1403 1591 l 2
 1327 1628 1247 1650 1163 1661 c 0
 1128 1665 1093 1669 1060 1669 c 0
 893 1669 742 1617 602 1510 c 0
 436 1382 342 1217 315 1011 c 0
 310 977 308 912 308 910 c 0
 308 744 362 593 470 455 c 0
 599 283 766 184 975 157 c 0
 1011 153 1077 150 1079 150 c 0
 1247 150 1399 205 1537 316 c 0
 1614 378 1675 449 1722 529 c 1
 1262 529 l 1
 1262 779 l 1
 2059 779 l 1
 2045 718 l 2
 1996 488 1880 297 1692 151 c 0
 1510 13 1305 -57 1081 -57 c 0
 1036 -57 991 -54 945 -48 c 0
 669 -14 442 112 273 327 c 1
EndSplineSet
EndChar

StartChar: H
Encoding: 72 72 7
Width: 1391
VWidth: 2104
Flags: HW
HStem: -48 21G<55 281 997 1223> 531 250<281 997> 1892 20G<55 281 997 1223>
VStem: 55 226<-48 531 781 1912> 997 226<-48 531 781 1912>
LayerCount: 2
Fore
SplineSet
1223 1912 m 1
 1223 -48 l 1
 997 -48 l 1
 997 531 l 1
 281 531 l 1
 281 -48 l 1
 55 -48 l 1
 55 1912 l 1
 281 1912 l 1
 281 781 l 1
 997 781 l 1
 997 1912 l 1
 1223 1912 l 1
EndSplineSet
EndChar

StartChar: I
Encoding: 73 73 8
Width: 426
VWidth: 2104
Flags: HW
HStem: -48 21G<31 257> 1892 20G<31 257>
VStem: 31 226<-48 1912>
LayerCount: 2
Fore
SplineSet
257 -48 m 1
 31 -48 l 1
 31 1912 l 1
 257 1912 l 1
 257 -48 l 1
EndSplineSet
EndChar

StartChar: J
Encoding: 74 74 9
Width: 649
VWidth: 2113
Flags: HW
HStem: -391 248<-182.988 129.196> 1900 20G<213 441>
VStem: 213 228<-67.2891 1920>
LayerCount: 2
Fore
SplineSet
111 -109 m 0
 181 -77 213 -21 213 64 c 2
 213 1920 l 1
 441 1920 l 1
 441 58 l 2
 441 -10 430 -72 410 -128 c 0
 384 -201 343 -262 285 -307 c 0
 214 -363 98 -391 -28 -391 c 0
 -81 -391 -126 -386 -164 -377 c 0
 -213 -364 -260 -343 -301 -315 c 2
 -340 -287 l 1
 -222 -66 l 1
 -179 -102 l 2
 -161 -117 -142 -128 -121 -134 c 0
 -96 -140 -67 -143 -39 -143 c 0
 12 -143 62 -132 111 -109 c 0
EndSplineSet
EndChar

StartChar: K
Encoding: 75 75 10
Width: 1727
VWidth: 2104
Flags: HW
HStem: -48 21G<81 297.443 1426 1653> 1892 20G<81 307 1190.28 1462>
VStem: 81 226<385 1912> 1426 227<-48 377.667>
LayerCount: 2
Fore
SplineSet
1356 834 m 1
 1556 630 1653 383 1653 96 c 2
 1653 -48 l 1
 1426 -48 l 1
 1426 104 l 2
 1426 338 1346 535 1181 703 c 0
 1078 806 965 876 837 915 c 1
 286 -48 l 1
 81 -48 l 1
 81 1912 l 1
 307 1912 l 1
 307 385 l 1
 1202 1912 l 1
 1462 1912 l 1
 979 1077 l 1
 1127 1027 1255 945 1356 834 c 1
EndSplineSet
EndChar

StartChar: L
Encoding: 76 76 11
Width: 968
VWidth: 2104
Flags: HW
HStem: -48 251<318 919> 1892 20G<91 318>
VStem: 91 227<203 1912>
LayerCount: 2
Fore
SplineSet
318 203 m 1
 919 203 l 1
 919 -48 l 1
 91 -48 l 1
 91 1912 l 1
 318 1912 l 1
 318 203 l 1
EndSplineSet
EndChar

StartChar: M
Encoding: 77 77 12
Width: 1905
VWidth: 2104
Flags: HW
HStem: -48 21G<73 306 1499 1732> 1892 20G<73 217.632 1589.74 1732>
VStem: 73 233<-48 1346> 1499 233<-48 1340>
LayerCount: 2
Fore
SplineSet
1601 1912 m 1
 1732 1912 l 1
 1732 -48 l 1
 1499 -48 l 1
 1499 1340 l 1
 917 304 l 1
 306 1346 l 1
 306 -48 l 5
 73 -48 l 1
 73 1912 l 1
 206 1912 l 1
 915 693 l 1
 1601 1912 l 1
EndSplineSet
EndChar

StartChar: N
Encoding: 78 78 13
Width: 1401
VWidth: 2104
Flags: HW
HStem: -48 21G<60 286 1085.12 1228> 1892 20G<988 1228>
VStem: 60 226<-48 1317> 988 240<525 1912>
LayerCount: 2
Fore
SplineSet
988 525 m 1
 988 1912 l 1
 1228 1912 l 1
 1228 -48 l 1
 1097 -48 l 1
 286 1317 l 1
 286 -48 l 1
 60 -48 l 1
 60 1900 l 1
 187 1900 l 1
 988 525 l 1
EndSplineSet
EndChar

StartChar: O
Encoding: 79 79 14
Width: 2289
VWidth: 2104
Flags: HW
HStem: -112 263<827.331 1372.21> 1721 263<825.998 1373.48>
VStem: 54 238<673.137 1197.4> 1908 236<673.54 1197.39>
LayerCount: 2
Fore
SplineSet
1672 1490 m 0
 1513 1646 1324 1721 1099 1721 c 0
 876 1721 688 1646 529 1490 c 0
 369 1334 292 1153 292 936 c 0
 292 718 369 535 529 381 c 0
 688 227 876 151 1099 151 c 0
 1324 151 1513 227 1672 381 c 0
 1831 535 1908 718 1908 936 c 0
 1908 1153 1831 1334 1672 1490 c 0
1848 1676 m 1
 2046 1472 2144 1223 2144 936 c 0
 2144 648 2054 399 1848 195 c 0
 1646 -5 1411 -112 1099 -112 c 20
 787 -112 557 -9 351 195 c 0
 149 395 54 648 54 936 c 0
 54 1223 153 1472 351 1677 c 1
 557 1881 809 1984 1099 1984 c 0
 1390 1984 1643 1881 1848 1676 c 1
EndSplineSet
EndChar

StartChar: P
Encoding: 80 80 15
Width: 1531
VWidth: 2104
Flags: HW
HStem: -48 21G<56 282> 531 249<282 948.956> 1661 251<282 958.895>
VStem: 56 226<-48 531 780 1661> 1215 223<1034.91 1408.7>
LayerCount: 2
Fore
SplineSet
282 1661 m 1
 282 780 l 1
 698 780 l 1
 698 783 l 1
 752 783 l 1
 880 783 987 826 1078 911 c 0
 1171 998 1215 1099 1215 1222 c 0
 1215 1344 1171 1446 1078 1533 c 0
 992 1613 895 1661 778 1661 c 2
 282 1661 l 1
1249 1709 m 1
 1375 1576 1438 1410 1438 1222 c 0
 1438 1033 1375 868 1249 735 c 1
 1137 624 996 558 835 540 c 1
 835 531 l 1
 282 531 l 1
 282 -48 l 1
 56 -48 l 1
 56 1912 l 1
 835 1912 l 1
 835 1905 l 1
 996 1887 1137 1820 1249 1709 c 1
EndSplineSet
EndChar

StartChar: Q
Encoding: 81 81 16
Width: 2338
VWidth: 2107
Flags: HW
HStem: -222 246<1638.92 1823.68> -109 253<896.722 1137.1> 193 141<892.496 1131.33> 1733 254<860.487 1389.06>
VStem: 79 229<630.035 1161.43> 1942 227<625.065 1162.11>
LayerCount: 2
Fore
SplineSet
376 1680 m 1x7c
 582 1884 834 1987 1124 1987 c 0
 1415 1987 1667 1883 1873 1680 c 1
 2071 1477 2169 1229 2169 942 c 0
 2169 655 2071 407 1873 204 c 0
 1800 133 1723 72 1638 25 c 1
 1646 24 1652 24 1661 24 c 0
 1686 24 1715 29 1745 36 c 0
 1818 54 1871 91 1910 153 c 0
 1917 164 1922 174 1927 185 c 2
 1953 245 l 1
 2146 83 l 1
 2134 63 2122 42 2110 22 c 0
 2042 -96 1940 -173 1804 -206 c 0
 1760 -217 1718 -222 1675 -222 c 0xbc
 1599 -222 1524 -205 1455 -171 c 0
 1441 -165 1427 -157 1414 -150 c 0
 1382 -131 1353 -111 1328 -90 c 1
 1262 -103 1194 -109 1124 -109 c 0
 980 -109 846 -83 722 -29 c 0
 659 -4 600 27 543 64 c 0
 484 103 429 148 376 201 c 0
 178 404 79 653 79 941 c 0
 79 1228 178 1476 376 1680 c 1x7c
985 193 m 0
 956 193 919 185 891 177 c 1
 964 155 1041 144 1124 144 c 0
 1129 144 1134 144 1139 144 c 1x7c
 1133 148 1126 152 1119 156 c 0
 1074 181 1031 193 985 193 c 0
1703 286 m 0
 1863 452 1942 650 1942 885 c 0
 1942 1118 1864 1317 1703 1484 c 0
 1542 1651 1352 1733 1124 1733 c 0
 899 1733 709 1650 548 1483 c 0
 387 1316 308 1118 308 885 c 0
 308 650 387 452 548 286 c 0
 577 257 605 230 634 206 c 1
 696 261 771 299 856 319 c 0
 900 330 942 334 983 334 c 0
 1060 334 1134 317 1203 284 c 0
 1217 278 1232 270 1245 263 c 0
 1281 242 1370 174 1424 93 c 1
 1526 134 1618 198 1703 286 c 0
EndSplineSet
EndChar

StartChar: R
Encoding: 82 82 17
Width: 1539
VWidth: 2104
Flags: HW
HStem: -48 21G<36 262 1142.18 1416> 531 249<262 784> 1661 251<262 941.839>
VStem: 36 226<-48 531 780 1661> 1195 223<1027.64 1415.04>
LayerCount: 2
Fore
SplineSet
262 1661 m 1
 262 780 l 1
 680 780 l 1
 680 783 l 1
 734 783 l 1
 863 783 970 826 1061 911 c 0
 1154 998 1195 1099 1195 1222 c 0
 1195 1344 1154 1446 1061 1533 c 0
 975 1613 877 1661 760 1661 c 2
 262 1661 l 1
1036 619 m 1
 1416 -48 l 1
 1155 -48 l 1
 784 531 l 1
 262 531 l 1
 262 -48 l 1
 36 -48 l 1
 36 1912 l 1
 818 1912 l 1
 818 1905 l 1
 979 1887 1120 1822 1229 1712 c 0
 1355 1581 1418 1418 1418 1233 c 0
 1418 1047 1355 884 1229 753 c 0
 1175 696 1109 652 1036 619 c 1
EndSplineSet
EndChar

StartChar: S
Encoding: 83 83 18
Width: 1104
VWidth: 2104
Flags: HW
HStem: -90 259<160.064 430.305> 1696 259<641.695 916.492>
VStem: 269 270<1252.5 1592.9> 535 270<266.087 599.346>
LayerCount: 2
Fore
SplineSet
943 1629 m 1xe0
 897 1675 845 1696 787 1696 c 2
 778 1696 l 1
 710 1696 655 1671 608 1627 c 0
 560 1582 549 1492 539 1471 c 1xe0
 539 1464 541 1447 545 1425 c 0
 550 1397 556 1357 568 1310 c 0
 635 1060 707 812 773 562 c 0
 796 477 805 422 805 385 c 1
 805 260 751 148 655 58 c 0
 553 -39 429 -90 277 -90 c 0
 150 -90 49 -43 -35 47 c 2
 -69 85 l 1
 97 273 l 1
 132 236 l 1
 177 190 228 169 287 169 c 2
 296 169 l 1
 364 169 418 194 465 238 c 0
 512 282 535 333 535 394 c 0xd0
 535 412 529 467 507 546 c 0
 423 847 356 1072 317 1230 c 0
 300 1300 287 1357 279 1400 c 0
 272 1435 269 1459 269 1480 c 1
 269 1605 320 1716 417 1807 c 0
 519 1904 643 1955 795 1955 c 0
 923 1955 1024 1908 1109 1818 c 2
 1144 1780 l 1
 977 1592 l 1
 943 1629 l 1xe0
EndSplineSet
EndChar

StartChar: T
Encoding: 84 84 19
Width: 898
VWidth: 2104
Flags: HW
HStem: -48 21G<273 499> 1661 251<-29 273 499 801>
VStem: 273 226<-48 1661>
LayerCount: 2
Fore
SplineSet
273 -48 m 1
 273 1661 l 1
 -29 1661 l 1
 -29 1912 l 1
 801 1912 l 1
 801 1661 l 1
 499 1661 l 1
 499 -48 l 1
 273 -48 l 1
EndSplineSet
EndChar

StartChar: U
Encoding: 85 85 20
Width: 1498
VWidth: 2106
Flags: HW
HStem: -93 247<505.876 906.711> 1893 20G<34 259 1127 1353>
VStem: 34 225<377.394 1913> 1127 226<372.516 1913>
LayerCount: 2
Fore
SplineSet
1127 544 m 2
 1127 1913 l 1
 1353 1913 l 1
 1353 481 l 1
 1347 481 l 1
 1332 332 1277 200 1184 90 c 0
 1183 89 1182 87 1180 86 c 0
 1063 -18 762 -97 737 -97 c 0
 736 -97 735 -97 735 -97 c 0
 735 -96 738 -95 742 -93 c 1
 649 -93 l 2
 491 -93 342 -31 210 86 c 0
 209 87 207 89 206 90 c 0
 102 213 34 360 34 530 c 2
 34 1913 l 1
 259 1913 l 1
 259 570 l 1
 259 450 304 350 381 266 c 1
 477 189 621 167 652 154 c 1
 738 154 l 2
 823 154 914 189 1010 266 c 1
 1081 345 1127 435 1127 544 c 2
EndSplineSet
EndChar

StartChar: V
Encoding: 86 86 21
Width: 1458
VWidth: 2108
Flags: HW
HStem: 1895 20G<-52 200.008 1186.98 1439>
LayerCount: 2
Fore
SplineSet
693 -174 m 1
 -52 1915 l 1
 193 1915 l 1
 693 488 l 1
 1194 1915 l 1
 1439 1915 l 1
 693 -174 l 1
EndSplineSet
EndChar

StartChar: W
Encoding: 87 87 22
Width: 2566
VWidth: 2107
Flags: HW
HStem: 1894 20G<-23 237.745 643 903.056 2303.96 2562>
LayerCount: 2
Fore
SplineSet
993 -140 m 1
 -23 1914 l 1
 228 1914 l 1
 992 346 l 1
 1164 724 l 1
 643 1914 l 1
 894 1914 l 1
 1604 346 l 1
 2313 1914 l 1
 2562 1914 l 1
 1604 -140 l 1
 1299 535 l 1
 993 -140 l 1
EndSplineSet
EndChar

StartChar: X
Encoding: 88 88 23
Width: 1720
VWidth: 2104
Flags: HW
HStem: -48 21G<304 577.653 1111.3 1385> 1892 20G<-54 219.317 1468.68 1742>
LayerCount: 2
Fore
SplineSet
844 393 m 1
 565 -48 l 1
 304 -48 l 1
 685 608 l 1
 -54 1912 l 1
 208 1912 l 1
 844 788 l 1
 1480 1912 l 1
 1742 1912 l 1
 1002 608 l 1
 1385 -48 l 1
 1124 -48 l 1
 844 393 l 1
EndSplineSet
EndChar

StartChar: Y
Encoding: 89 89 24
Width: 1720
VWidth: 2104
Flags: HW
HStem: -48 21G<722 968> 1892 20G<-54 219.335 1469.68 1743>
VStem: 722 246<-48 595>
LayerCount: 2
Fore
SplineSet
968 -48 m 1
 722 -48 l 1
 722 595 l 1
 -54 1912 l 1
 208 1912 l 1
 845 788 l 1
 1481 1912 l 1
 1743 1912 l 1
 968 595 l 1
 968 -48 l 1
EndSplineSet
EndChar

StartChar: Z
Encoding: 90 90 25
Width: 1423
VWidth: 2104
Flags: HW
HStem: -48 252<368 1302> 1661 251<9 936>
LayerCount: 2
Fore
SplineSet
368 204 m 1
 1302 204 l 1
 1302 -48 l 1
 9 -48 l 1
 9 21 l 1
 936 1661 l 1
 9 1661 l 1
 9 1912 l 1
 1334 1912 l 1
 368 204 l 1
EndSplineSet
EndChar

StartChar: numbersign
Encoding: 35 35 26
Width: 1120
VWidth: 2105
Flags: W
HStem: 592 244<-71 203 424 577 798 1072> 1005 244<-71 203 424 577 798 1072>
VStem: 203 221<288 592 836 1005 1249 1552> 577 221<288 592 836 1005 1249 1552>
LayerCount: 2
Fore
SplineSet
203 1249 m 1
 203 1552 l 1
 424 1552 l 1
 424 1249 l 1
 577 1249 l 1
 577 1552 l 1
 798 1552 l 1
 798 1249 l 1
 1072 1249 l 1
 1072 1005 l 1
 798 1005 l 1
 798 836 l 1
 1072 836 l 1
 1072 592 l 1
 798 592 l 1
 798 288 l 1
 577 288 l 1
 577 592 l 1
 424 592 l 1
 424 288 l 1
 203 288 l 1
 203 592 l 1
 -71 592 l 1
 -71 836 l 1
 203 836 l 1
 203 1005 l 1
 -71 1005 l 1
 -71 1249 l 1
 203 1249 l 1
577 836 m 1
 577 1005 l 1
 424 1005 l 1
 424 836 l 1
 577 836 l 1
EndSplineSet
Validated: 1
EndChar

StartChar: dollar
Encoding: 36 36 27
Width: 915
VWidth: 2114
Flags: W
HStem: -247 456<247.679 482.891> 1277 456<307.004 542.46>
VStem: -28 232<250.711 428.551> 21 248<1063.01 1238.14> 247 296<-247 -16.0012 1499.29 1733> 521 247<248.094 420.408> 586 232<1047.54 1234.69>
LayerCount: 2
Fore
SplineSet
247 1507 m 1xc8
 247 1733 l 1
 543 1733 l 1
 543 1510 l 1
 556 1508 570 1505 583 1501 c 0
 673 1465 741 1397 782 1305 c 0
 806 1252 818 1198 818 1141 c 0
 818 1109 812 1074 802 1030 c 1
 790 972 l 1
 570 1058 l 1
 575 1078 586 1125 586 1141 c 0xca
 586 1162 580 1182 568 1203 c 0
 557 1222 542 1235 525 1247 c 0
 503 1262 465 1277 427 1277 c 0
 406 1277 385 1272 361 1264 c 0
 337 1256 320 1245 307 1232 c 0
 296 1221 287 1209 279 1193 c 0
 272 1177 270 1151 269 1149 c 0
 269 1131 275 1114 285 1096 c 1
 451 884 612 673 733 459 c 0
 760 412 768 360 768 307 c 0xd4
 768 268 761 229 748 190 c 0
 717 96 655 28 568 -13 c 0
 559 -16 552 -19 543 -22 c 1
 543 -247 l 1
 247 -247 l 1
 247 -25 l 1
 234 -23 219 -20 206 -16 c 0
 116 20 47 88 7 180 c 0
 -16 233 -28 288 -28 345 c 0
 -28 375 -23 411 -14 455 c 2
 -2 513 l 1
 217 428 l 1
 213 407 204 361 204 344 c 0xe8
 204 323 209 303 221 282 c 0
 232 263 247 249 263 237 c 0
 276 229 292 221 311 215 c 0
 328 211 346 209 362 209 c 0
 383 209 404 213 428 221 c 0
 452 230 469 240 482 253 c 0
 501 272 521 306 521 336 c 0
 521 354 516 372 504 388 c 0
 339 601 177 812 56 1026 c 0
 29 1073 21 1125 21 1178 c 0xd4
 21 1217 28 1256 41 1295 c 0
 74 1396 143 1466 247 1507 c 1xc8
EndSplineSet
Validated: 1
EndChar

StartChar: percent
Encoding: 37 37 28
Width: 2143
VWidth: 2105
Flags: W
HStem: 59 244<1442.95 1710.12> 775 240<1446.15 1711.5> 871 241<336.311 606.338> 1584 241<337.492 604.501> 1920 20G<1524.03 1630.82>
VStem: 26 217<1206.94 1489.05> 700 232<1208.11 1487.77> 1117 232<398.632 677.975> 1806 217<397.482 679.273>
LayerCount: 2
Fore
SplineSet
254 -39 m 1x9f80
 1537 1940 l 1
 1795 1885 l 1
 511 -93 l 1
 254 -39 l 1x9f80
633 1515 m 0
 587 1562 536 1584 471 1584 c 0
 407 1584 355 1562 309 1515 c 0
 263 1468 243 1417 243 1352 c 0
 243 1283 264 1226 309 1180 c 0
 355 1134 406 1112 471 1112 c 0xbf80
 537 1112 587 1134 633 1180 c 0
 679 1226 700 1283 700 1352 c 0
 700 1417 679 1468 633 1515 c 0
797 1011 m 0
 708 919 597 871 471 871 c 0
 345 871 237 919 153 1011 c 0
 69 1103 26 1219 26 1349 c 0
 26 1478 69 1593 153 1685 c 0
 237 1777 345 1825 471 1825 c 0
 522 1825 571 1818 618 1802 c 0
 685 1779 745 1741 798 1686 c 0
 845 1639 878 1584 900 1524 c 0
 921 1469 932 1411 932 1349 c 0
 932 1219 886 1103 797 1011 c 0
1740 705 m 0
 1694 752 1643 775 1578 775 c 0xdf80
 1513 775 1462 752 1416 705 c 0
 1370 658 1349 605 1349 540 c 0
 1349 471 1370 417 1416 371 c 0
 1462 325 1513 303 1578 303 c 0
 1643 303 1694 325 1740 371 c 0
 1785 417 1806 471 1806 540 c 0
 1806 605 1786 658 1740 705 c 0
1896 202 m 0
 1823 120 1597 59 1576 59 c 2
 1574 59 l 1
 1574 60 1575 61 1578 62 c 1
 1452 62 1341 110 1252 202 c 0
 1163 294 1117 409 1117 539 c 0
 1117 668 1164 784 1252 876 c 0
 1375 1004 1527 1015 1578 1015 c 0
 1629 1015 1678 1008 1725 992 c 0
 1791 969 1848 932 1897 877 c 0
 1941 830 1972 775 1994 715 c 0
 2013 660 2023 601 2023 539 c 0
 2023 409 1980 294 1896 202 c 0
EndSplineSet
Validated: 1
EndChar

StartChar: ampersand
Encoding: 38 38 29
Width: 1319
VWidth: 2106
Flags: W
HStem: -100 244<362.444 692.094> 922 268<404.029 564> 1664 241<403.335 653.354>
VStem: -43 220<344.327 718.983> 97 217<1282.95 1572.87> 743 217<1284.97 1572.62> 880 220<344.327 686.613> 1037 215<997.768 1138>
LayerCount: 2
Fore
SplineSet
1037 1138 m 1xe1
 1252 1138 l 1
 1252 1080 l 2xe1
 1248 1039 1233 998 1218 958 c 0
 1187 872 1134 803 1064 757 c 1
 1089 687 1100 612 1100 532 c 0
 1100 359 1043 207 933 85 c 0
 823 -37 686 -100 529 -100 c 0
 373 -100 236 -37 126 85 c 0
 15 207 -43 359 -43 532 c 0xf2
 -43 704 15 856 126 979 c 0
 160 1018 198 1050 237 1076 c 1
 233 1081 229 1086 224 1091 c 0
 140 1183 97 1299 97 1429 c 0
 97 1558 140 1673 224 1765 c 0
 308 1857 411 1905 529 1905 c 0
 577 1905 622 1898 666 1882 c 0
 728 1859 785 1821 834 1766 c 0
 878 1719 909 1664 931 1604 c 0
 950 1549 960 1491 960 1429 c 0
 960 1315 928 1213 865 1128 c 2
 829 1081 l 1
 678 1254 l 1
 703 1290 l 2
 730 1330 743 1375 743 1430 c 0
 743 1495 723 1548 680 1595 c 0
 637 1642 589 1664 528 1664 c 0
 468 1664 420 1642 377 1595 c 0
 334 1548 314 1495 314 1430 c 0xec
 314 1361 334 1306 377 1260 c 0
 417 1217 462 1190 517 1190 c 1
 564 1190 l 1
 564 922 l 1
 517 922 l 1
 424 922 348 880 281 806 c 0
 211 728 177 639 177 532 c 0
 177 424 211 335 280 258 c 0
 349 181 430 144 528 144 c 0
 627 144 708 181 777 258 c 0
 846 335 880 424 880 532 c 0xf2
 880 589 870 641 851 689 c 1
 830 686 812 681 796 674 c 0
 771 662 752 648 737 629 c 0
 718 605 699 565 694 526 c 2
 689 479 l 1
 478 479 l 1
 478 538 l 1
 478 580 492 622 507 663 c 0
 529 722 560 773 600 814 c 0
 629 843 664 868 702 887 c 1
 693 897 l 1
 779 919 l 2
 794 923 810 925 826 927 c 0
 836 929 847 929 857 929 c 0
 880 929 907 935 929 946 c 0
 954 958 973 973 988 992 c 0
 1000 1007 1011 1025 1020 1047 c 0
 1030 1077 1032 1103 1037 1138 c 1xe1
EndSplineSet
Validated: 1
EndChar

StartChar: quotesingle
Encoding: 39 39 30
Width: 223
VWidth: 2072
Flags: W
HStem: 1913 20G<-70 150>
VStem: -70 220<1207 1933>
LayerCount: 2
Fore
SplineSet
-70 1207 m 1
 -70 1933 l 1
 150 1933 l 1
 150 1207 l 1
 -70 1207 l 1
EndSplineSet
Validated: 1
EndChar

StartChar: parenleft
Encoding: 40 40 31
Width: 465
VWidth: 2124
Flags: W
HStem: 1965 20G<264.5 392>
VStem: -63 226<-584.166 1668.17>
LayerCount: 2
Fore
SplineSet
392 -653 m 1
 392 -901 l 1
 327 -901 l 1
 202 -886 102 -838 34 -750 c 0
 -31 -667 -63 -566 -63 -452 c 2
 -63 1536 l 2
 -63 1650 -31 1751 34 1834 c 0
 102 1922 202 1970 327 1985 c 1
 392 1985 l 1
 392 1737 l 1
 350 1731 l 2
 304 1724 270 1713 244 1699 c 0
 224 1687 211 1676 202 1663 c 0
 175 1625 163 1590 163 1554 c 1
 163 -470 l 1
 163 -506 175 -541 202 -579 c 0
 211 -592 224 -603 244 -615 c 0
 270 -629 304 -640 350 -647 c 2
 392 -653 l 1
EndSplineSet
Validated: 1
EndChar

StartChar: parenright
Encoding: 41 41 32
Width: 465
VWidth: 2124
Flags: W
HStem: 1965 20G<-63 64.5>
VStem: 166 226<-584.166 1668.17>
LayerCount: 2
Fore
SplineSet
-63 1737 m 1
 -63 1985 l 1
 2 1985 l 1
 127 1970 227 1922 295 1834 c 0
 360 1751 392 1650 392 1536 c 2
 392 -452 l 2
 392 -566 360 -667 295 -750 c 0
 227 -838 127 -886 2 -901 c 1
 -63 -901 l 1
 -63 -653 l 1
 -21 -647 l 2
 25 -640 59 -629 85 -615 c 0
 105 -603 118 -592 127 -579 c 0
 154 -541 166 -506 166 -470 c 1
 166 1554 l 1
 166 1590 154 1625 127 1663 c 0
 118 1676 105 1687 85 1699 c 0
 59 1713 25 1724 -21 1731 c 2
 -63 1737 l 1
EndSplineSet
Validated: 1
EndChar

StartChar: asterisk
Encoding: 42 42 33
Width: 865
VWidth: 2077
Flags: W
HStem: 1407 126<-54 232 506 792> 1918 20G<313 425>
VStem: 313 112<1002 1319 1621 1938>
LayerCount: 2
Fore
SplineSet
313 1938 m 1
 425 1938 l 1
 425 1621 l 1
 589 1889 l 1
 748 1713 l 1
 506 1533 l 1
 792 1533 l 1
 792 1407 l 1
 506 1407 l 1
 748 1227 l 1
 589 1051 l 1
 425 1319 l 1
 425 1002 l 1
 313 1002 l 1
 313 1319 l 1
 149 1051 l 1
 -10 1227 l 1
 232 1407 l 1
 -54 1407 l 1
 -54 1533 l 1
 232 1533 l 1
 -10 1713 l 1
 149 1889 l 1
 313 1621 l 1
 313 1938 l 1
EndSplineSet
Validated: 1
EndChar

StartChar: plus
Encoding: 43 43 34
Width: 1120
VWidth: 2114
Flags: W
HStem: 612 244<-3 390 610 1002>
VStem: 390 220<179 612 856 1290>
LayerCount: 2
Fore
SplineSet
390 856 m 1
 390 1290 l 1
 610 1290 l 1
 610 856 l 1
 1002 856 l 1
 1002 612 l 1
 610 612 l 1
 610 179 l 1
 390 179 l 1
 390 612 l 1
 -3 612 l 1
 -3 856 l 1
 390 856 l 1
EndSplineSet
Validated: 1
EndChar

StartChar: comma
Encoding: 44 44 35
Width: 216
VWidth: 2153
Flags: W
HStem: -318 583
VStem: -78 222<45.4189 265>
LayerCount: 2
Fore
SplineSet
144 265 m 1
 144 211 l 1
 144 28 67 -135 -73 -274 c 2
 -118 -318 l 1
 -231 -98 l 1
 -205 -70 l 2
 -118 25 -78 118 -78 212 c 2
 -78 265 l 1
 144 265 l 1
EndSplineSet
Validated: 1
EndChar

StartChar: hyphen
Encoding: 45 45 36
Width: 754
VWidth: 2118
Flags: W
HStem: 549 244<-57 682>
LayerCount: 2
Fore
SplineSet
-57 793 m 1
 682 793 l 1
 682 549 l 1
 -57 549 l 1
 -57 793 l 1
EndSplineSet
Validated: 1
EndChar

StartChar: period
Encoding: 46 46 37
Width: 318
VWidth: 2146
Flags: W
HStem: -59 346<-14.7939 193.91>
VStem: -68 314<-6.54234 234.542>
LayerCount: 2
Fore
SplineSet
89 287 m 0
 116 287 141 279 165 265 c 0
 209 239 246 184 246 114 c 0
 246 44 210 -11 167 -37 c 0
 143 -52 117 -59 89 -59 c 0
 25 -59 -24 -19 -48 28 c 0
 -61 54 -68 84 -68 114 c 0
 -68 184 -31 239 13 265 c 0
 37 279 62 287 89 287 c 0
EndSplineSet
Validated: 1
EndChar

StartChar: slash
Encoding: 47 47 38
Width: 946
VWidth: 2104
Flags: W
LayerCount: 2
Fore
SplineSet
962 1948 m 1
 61 -187 l 1
 -140 -84 l 1
 761 2051 l 1
 962 1948 l 1
EndSplineSet
Validated: 1
EndChar

StartChar: zero
Encoding: 48 48 39
Width: 1319
VWidth: 2114
Flags: W
HStem: -38 241<441.615 602> 1294 240<441.302 762.011>
VStem: 122 217<293.641 1198.8> 864 217<293.641 1200.98>
LayerCount: 2
Fore
SplineSet
1081 1088 m 2
 1081 408 l 2
 1081 286 1039 178 955 92 c 0
 882 16 623 -41 598 -41 c 0
 597 -41 596 -41 596 -41 c 0
 596 -41 598 -39 602 -38 c 1
 455 -38 332 6 248 92 c 0
 164 178 122 287 122 409 c 2
 122 1089 l 2
 122 1211 164 1318 248 1404 c 0
 332 1490 455 1534 602 1534 c 0
 662 1534 719 1526 772 1511 c 0
 849 1489 907 1453 956 1403 c 0
 1000 1359 1032 1308 1053 1252 c 0
 1072 1202 1081 1146 1081 1088 c 2
790 1230 m 0
 737 1273 677 1294 601 1294 c 0
 526 1294 466 1273 413 1230 c 0
 361 1187 339 1141 339 1082 c 2
 339 419 l 2
 339 356 361 307 413 265 c 0
 466 223 526 203 601 203 c 0
 677 203 737 223 790 265 c 0
 842 307 864 356 864 419 c 2
 864 1082 l 2
 864 1141 842 1187 790 1230 c 0
EndSplineSet
Validated: 1
EndChar

StartChar: one
Encoding: 49 49 40
Width: 1221
VWidth: 2109
Flags: W
VStem: 543 227<-43 998>
LayerCount: 2
Fore
SplineSet
543 -43 m 1
 543 998 l 1
 370 998 l 1
 770 1712 l 1
 770 -43 l 1
 543 -43 l 1
EndSplineSet
Validated: 1
EndChar

StartChar: two
Encoding: 50 50 41
Width: 1320
VWidth: 2114
Flags: W
HStem: -38 250<552 1117> 1293 241<405.968 716.735>
VStem: 809 240<982.798 1208.68>
LayerCount: 2
Fore
SplineSet
552 212 m 1
 1117 212 l 1
 1117 -38 l 1
 124 -38 l 1
 696 866 l 2
 740 936 772 991 790 1029 c 0
 803 1055 809 1074 809 1077 c 2
 809 1100 l 2
 809 1149 790 1190 744 1229 c 0
 691 1273 630 1293 557 1293 c 0
 484 1293 424 1271 372 1224 c 0
 361 1213 353 1205 346 1194 c 2
 313 1143 l 1
 155 1318 l 1
 175 1344 192 1369 215 1394 c 0
 299 1486 412 1534 557 1534 c 0
 616 1534 672 1527 725 1512 c 0
 802 1491 871 1453 922 1404 c 0
 966 1360 999 1311 1019 1255 c 0
 1023 1247 1026 1236 1029 1228 c 0
 1042 1185 1049 1140 1049 1093 c 2
 1049 1091 l 1
 1049 996 1008 909 958 821 c 1
 552 212 l 1
EndSplineSet
Validated: 1
EndChar

StartChar: three
Encoding: 51 51 42
Width: 1319
VWidth: 2115
Flags: W
HStem: -68 244<385.2 773.388> 1285 250<400 673>
VStem: 976 220<362.02 689.433>
LayerCount: 2
Fore
SplineSet
673 1285 m 1
 400 1285 l 1
 400 1535 l 1
 1104 1535 l 1
 826 1067 l 1
 904 1039 974 995 1029 938 c 0
 1139 823 1196 683 1196 522 c 0
 1196 360 1139 218 1029 104 c 1
 912 -10 755 -68 574 -68 c 0
 398 -68 244 -8 136 108 c 0
 133 111 132 113 129 116 c 0
 95 154 66 193 42 235 c 2
 21 271 l 1
 188 456 l 1
 218 387 l 2
 231 358 248 330 272 304 c 0
 278 299 283 293 288 288 c 0
 368 212 461 176 574 176 c 0
 687 176 780 210 860 279 c 0
 940 348 976 428 976 527 c 0
 976 625 940 705 860 775 c 0
 800 826 733 857 657 871 c 0
 630 875 603 877 574 877 c 0
 550 877 526 876 504 873 c 2
 389 858 l 1
 483 1000 579 1143 673 1285 c 1
EndSplineSet
Validated: 1
EndChar

StartChar: four
Encoding: 52 52 43
Width: 1320
VWidth: 2109
Flags: W
HStem: 240 250<997 1148> 274 216<516 742>
VStem: 742 255<490 852> 770 227<-43 240>
LayerCount: 2
Fore
SplineSet
1148 240 m 1xa0
 997 240 l 1x90
 997 -43 l 1
 770 -43 l 1
 770 274 l 1
 92 274 l 1
 997 1734 l 1x50
 997 490 l 1
 1148 490 l 1
 1148 240 l 1xa0
516 490 m 1x60
 742 490 l 1
 742 852 l 1
 516 490 l 1x60
EndSplineSet
Validated: 1
EndChar

StartChar: five
Encoding: 53 53 44
Width: 1319
VWidth: 2115
Flags: W
HStem: -68 244<385.478 769.17> 892 244<559.723 745.855> 1285 250<679 1012>
VStem: 978 220<368.489 698.933>
LayerCount: 2
Fore
SplineSet
179 986 m 1
 519 1535 l 1
 1012 1535 l 1
 1012 1285 l 1
 679 1285 l 1
 558 1136 l 1
 564 1136 570 1136 576 1136 c 0
 757 1136 914 1076 1031 959 c 1
 1141 842 1198 698 1198 534 c 0
 1198 369 1141 225 1031 108 c 1
 914 -9 757 -68 576 -68 c 0
 396 -68 241 -6 131 116 c 0
 96 155 66 195 41 239 c 2
 20 277 l 1
 192 449 l 1
 220 386 l 2
 236 351 258 318 290 288 c 0
 370 212 463 176 576 176 c 0
 689 176 781 211 861 281 c 0
 941 351 978 434 978 534 c 0
 978 634 941 716 861 787 c 0
 781 858 616 877 576 892 c 1
 506 892 443 877 389 850 c 2
 354 832 l 1
 179 986 l 1
EndSplineSet
Validated: 1
EndChar

StartChar: six
Encoding: 54 54 45
Width: 1319
VWidth: 2114
Flags: W
HStem: -41 244<438.453 765.547> 621 233<613 768.149> 1514 20G<750.075 1039>
VStem: 122 217<293.366 531.525> 865 217<292.966 530.337>
LayerCount: 2
Fore
SplineSet
413 265 m 0
 466 223 527 203 602 203 c 0
 677 203 738 223 791 265 c 0
 845 307 865 353 865 411 c 0
 865 472 844 519 791 560 c 0
 738 601 677 621 602 621 c 0
 527 621 467 601 414 560 c 0
 402 549 390 538 378 527 c 1
 350 493 339 457 339 411 c 0
 339 353 359 307 413 265 c 0
162 604 m 1
 763 1534 l 1
 1039 1534 l 1
 613 854 l 1
 755 854 875 808 956 724 c 0
 1040 638 1082 530 1082 408 c 0
 1082 286 1040 178 956 92 c 0
 882 15 623 -41 598 -41 c 0
 597 -41 596 -41 596 -41 c 0
 596 -41 598 -39 602 -38 c 1
 542 -38 485 -31 432 -16 c 0
 354 6 297 43 248 93 c 0
 204 138 171 189 151 245 c 0
 131 295 122 351 122 409 c 0
 122 478 136 544 164 603 c 1
 162 604 l 1
EndSplineSet
Validated: 1
EndChar

StartChar: seven
Encoding: 55 55 46
Width: 1321
VWidth: 2114
Flags: W
HStem: 1284 250<278 842>
LayerCount: 2
Fore
SplineSet
842 1284 m 1
 278 1284 l 1
 278 1534 l 1
 1257 1534 l 1
 287 -38 l 1
 21 -38 l 1
 842 1284 l 1
EndSplineSet
Validated: 1
EndChar

StartChar: eight
Encoding: 56 56 47
Width: 1319
VWidth: 2114
Flags: W
HStem: -38 241<435.797 602> 621 254<438.387 764.609> 1294 240<440.001 764.565>
VStem: 122 217<292.655 530.015 963.411 1203.85> 864 217<292.281 530.87 965.663 1203.57>
LayerCount: 2
Fore
SplineSet
790 1232 m 0
 737 1274 677 1294 601 1294 c 0
 526 1294 466 1274 413 1232 c 0
 360 1190 339 1143 339 1085 c 0
 339 1024 361 977 413 936 c 0
 466 895 526 875 601 875 c 0
 677 875 737 895 790 936 c 0
 842 977 864 1024 864 1085 c 0
 864 1143 843 1190 790 1232 c 0
790 559 m 0
 737 601 677 621 601 621 c 0
 526 621 466 601 413 559 c 0
 360 517 339 471 339 413 c 0
 339 352 361 305 413 264 c 0
 466 223 526 203 601 203 c 0
 677 203 737 223 790 264 c 0
 842 305 864 352 864 413 c 0
 864 471 843 517 790 559 c 0
955 92 m 0
 882 16 623 -41 598 -41 c 0
 597 -41 596 -41 596 -41 c 0
 596 -41 598 -39 602 -38 c 1
 455 -38 332 6 248 92 c 0
 164 178 122 287 122 409 c 0
 122 531 164 638 248 724 c 0
 257 732 265 741 274 748 c 1
 265 755 257 764 248 772 c 0
 164 858 122 967 122 1089 c 0
 122 1211 164 1318 248 1404 c 0
 332 1490 455 1534 602 1534 c 0
 662 1534 719 1526 772 1511 c 0
 849 1489 907 1453 956 1403 c 0
 1000 1359 1032 1308 1053 1252 c 0
 1072 1202 1081 1146 1081 1088 c 0
 1081 966 1039 858 955 772 c 0
 947 764 939 755 930 748 c 1
 939 741 947 732 956 724 c 0
 999 679 1032 628 1053 572 c 0
 1072 522 1081 466 1081 408 c 0
 1081 286 1039 178 955 92 c 0
EndSplineSet
Validated: 1
EndChar

StartChar: nine
Encoding: 57 57 48
Width: 1319
VWidth: 2114
Flags: W
HStem: 642 233<435.851 591> 1293 241<440.251 766.283>
VStem: 122 217<963.411 1203.41> 865 217<964.389 1202.63>
LayerCount: 2
Fore
SplineSet
791 1231 m 0
 738 1273 677 1293 602 1293 c 0
 527 1293 466 1273 413 1231 c 0
 359 1189 339 1143 339 1085 c 0
 339 1024 360 977 413 936 c 0
 466 895 527 875 602 875 c 0
 676 875 736 894 789 934 c 0
 790 935 792 937 793 938 c 2
 826 969 l 1
 854 1003 865 1039 865 1085 c 0
 865 1143 845 1189 791 1231 c 0
1042 892 m 1
 424 -38 l 1
 165 -38 l 1
 591 642 l 1
 449 642 329 688 248 772 c 0
 164 858 122 967 122 1089 c 0
 122 1211 164 1318 248 1404 c 0
 332 1490 456 1534 602 1534 c 0
 662 1534 719 1527 772 1512 c 0
 850 1490 907 1453 956 1403 c 0
 1000 1358 1033 1307 1053 1251 c 0
 1073 1201 1082 1145 1082 1087 c 0
 1082 1018 1068 952 1040 893 c 1
 1042 892 l 1
EndSplineSet
Validated: 1
EndChar

StartChar: colon
Encoding: 58 58 49
Width: 318
VWidth: 2133
Flags: W
HStem: -72 346<-14.7939 193.91> 462 346<-14.7939 193.91>
VStem: -68 314<-19.5423 221.542 514.458 755.542>
LayerCount: 2
Fore
SplineSet
89 274 m 0
 116 274 141 266 165 252 c 0
 209 226 246 171 246 101 c 0
 246 31 210 -24 167 -50 c 0
 143 -65 117 -72 89 -72 c 0
 25 -72 -24 -32 -48 15 c 0
 -61 41 -68 71 -68 101 c 0
 -68 171 -31 226 13 252 c 0
 37 266 62 274 89 274 c 0
89 808 m 0
 116 808 141 800 165 786 c 0
 209 760 246 705 246 635 c 0
 246 565 210 510 167 484 c 0
 143 469 117 462 89 462 c 0
 25 462 -24 502 -48 549 c 0
 -61 575 -68 605 -68 635 c 0
 -68 705 -31 760 13 786 c 0
 37 800 62 808 89 808 c 0
EndSplineSet
Validated: 1
EndChar

StartChar: semicolon
Encoding: 59 59 50
Width: 384
VWidth: 2142
Flags: W
HStem: 470 347<43.2061 251.91>
VStem: -10 314<-6.98196 230.542 522.67 764.542>
LayerCount: 2
Fore
SplineSet
147 817 m 0
 174 817 199 809 223 795 c 0
 267 769 304 714 304 644 c 0
 304 574 268 518 225 492 c 0
 201 477 175 470 147 470 c 0
 83 470 34 511 10 558 c 0
 -3 584 -10 614 -10 644 c 0
 -10 714 27 769 71 795 c 0
 95 809 120 817 147 817 c 0
-10 110 m 0
 -10 180 27 235 71 261 c 0
 95 275 120 283 147 283 c 0
 174 283 199 275 223 261 c 0
 251 245 272 220 287 190 c 0
 304 156 312 115 312 73 c 2
 312 70 l 1
 294 -97 215 -246 79 -382 c 2
 34 -426 l 1
 -79 -207 l 1
 -52 -178 l 2
 -4 -127 29 -76 49 -26 c 1
 34 -12 20 5 10 24 c 0
 -3 50 -10 80 -10 110 c 0
EndSplineSet
Validated: 1
EndChar

StartChar: less
Encoding: 60 60 51
Width: 1118
VWidth: 2114
Flags: W
LayerCount: 2
Fore
SplineSet
1022 1319 m 1
 1022 1049 l 1
 431 745 l 1
 1022 439 l 1
 1022 171 l 1
 -92 745 l 1
 1022 1319 l 1
EndSplineSet
Validated: 1
EndChar

StartChar: equal
Encoding: 61 61 52
Width: 1120
VWidth: 2115
Flags: W
HStem: 475 244<-3 1002> 749 244<-3 1002>
LayerCount: 2
Fore
SplineSet
1002 993 m 1
 1002 749 l 1
 -3 749 l 1
 -3 993 l 1
 1002 993 l 1
1002 719 m 1
 1002 475 l 1
 -3 475 l 1
 -3 719 l 1
 1002 719 l 1
EndSplineSet
Validated: 1
EndChar

StartChar: greater
Encoding: 62 62 53
Width: 1122
VWidth: 2114
Flags: W
LayerCount: 2
Fore
SplineSet
-22 1049 m 1
 -22 1319 l 1
 1092 745 l 1
 -22 171 l 1
 -22 439 l 1
 569 745 l 1
 -22 1049 l 1
EndSplineSet
Validated: 1
EndChar

StartChar: question
Encoding: 63 63 54
Width: 1036
VWidth: 2104
Flags: W
HStem: 1704 267<317.29 598.26>
VStem: -50 242<1306.6 1573.99> 313 318<-41 200.092> 329 233<337.123 605.551> 723 241<1250.81 1575.38>
LayerCount: 2
Fore
SplineSet
329 458 m 0xd8
 329 546 353 645 409 749 c 2
 698 1286 l 1
 715 1326 723 1367 723 1408 c 0
 723 1440 719 1472 709 1507 c 0
 698 1542 683 1571 664 1596 c 0
 640 1628 612 1654 574 1674 c 0
 536 1695 498 1704 459 1704 c 0
 393 1704 329 1673 290 1639 c 0
 261 1614 237 1582 219 1541 c 0
 200 1498 194 1421 192 1412 c 0
 192 1379 198 1346 203 1317 c 1
 -23 1227 l 1
 -37 1285 l 2
 -46 1327 -50 1369 -50 1410 c 0
 -50 1494 -32 1576 4 1656 c 0
 33 1721 69 1778 115 1823 c 0
 164 1874 224 1916 292 1941 c 0
 347 1962 404 1971 459 1971 c 0
 480 1971 502 1969 524 1966 c 0
 576 1958 629 1938 679 1911 c 0
 801 1846 887 1740 934 1593 c 0
 953 1531 964 1469 964 1408 c 0
 964 1324 952 1240 912 1166 c 2
 583 567 l 1
 568 533 562 505 562 481 c 0xd8
 562 456 568 433 584 411 c 2
 613 375 l 1
 503 252 l 1
 552 241 588 208 609 169 c 0
 623 142 631 112 631 80 c 0
 631 50 623 19 610 -7 c 0
 586 -55 537 -95 473 -95 c 0
 408 -95 359 -55 334 -7 c 0
 321 19 313 50 313 80 c 0xe8
 313 150 351 207 395 233 c 0
 401 236 407 240 413 242 c 1
 384 271 362 306 348 345 c 0
 336 380 329 418 329 458 c 0xd8
EndSplineSet
Validated: 1
EndChar

StartChar: at
Encoding: 64 64 55
Width: 1087
VWidth: 2115
Flags: W
HStem: -330 246<374.445 707.803> 230 231<548.494 786.695> 835 230<579.353 815.335> 1552 244<481.273 822.487>
VStem: -6 222<81.4236 411> 272 226<515.502 753.788> 908 211<1034.87 1467.01>
LayerCount: 2
Fore
SplineSet
864 705 m 1
 858 732 846 757 824 781 c 0
 793 817 753 835 701 835 c 0
 649 835 605 817 564 778 c 0
 523 739 504 697 499 643 c 0
 499 638 498 632 498 626 c 0
 498 581 511 546 540 514 c 0
 572 478 611 461 663 461 c 0
 715 461 760 479 802 519 c 0
 829 543 845 569 855 597 c 1
 864 705 l 1
908 1286 m 0
 908 1394 881 1459 834 1499 c 0
 796 1532 737 1552 654 1552 c 0
 595 1552 544 1540 500 1518 c 0
 445 1491 400 1445 362 1380 c 0
 308 1285 270 1148 256 964 c 2
 253 915 l 1
 251 915 l 1
 223 565 l 1
 220 508 l 2
 217 465 216 387 216 386 c 0
 216 285 225 204 240 143 c 0
 252 94 269 59 287 36 c 0
 322 -8 362 -38 408 -58 c 0
 444 -74 484 -83 530 -84 c 2
 540 -84 l 1
 643 -82 730 -42 807 39 c 2
 847 81 l 1
 980 -120 l 1
 947 -152 l 2
 830 -266 689 -326 531 -330 c 2
 516 -330 l 1
 357 -326 223 -265 120 -145 c 0
 80 -99 51 -38 31 33 c 0
 5 122 -6 231 -6 358 c 0
 -6 376 -7 393 -6 411 c 1
 -10 411 l 1
 42 1070 l 1
 46 1070 l 1
 66 1268 114 1431 192 1552 c 0
 251 1642 328 1706 419 1747 c 0
 492 1780 574 1796 664 1796 c 0
 790 1796 896 1767 974 1702 c 0
 1073 1620 1119 1488 1119 1323 c 0
 1119 1297 1118 1269 1116 1241 c 2
 1036 230 l 1
 826 230 l 1
 829 260 l 1
 779 239 720 230 654 230 c 0
 543 230 445 271 372 354 c 0
 306 427 272 516 272 616 c 0
 272 629 271 641 272 653 c 0
 282 767 331 866 415 945 c 0
 499 1025 600 1065 711 1065 c 0
 779 1065 840 1055 890 1031 c 1
 905 1229 l 2
 907 1249 908 1268 908 1286 c 0
EndSplineSet
Validated: 1
EndChar

StartChar: bracketleft
Encoding: 91 91 56
Width: 465
VWidth: 2124
Flags: W
HStem: -901 250<162 392> 1735 250<162 392>
VStem: -64 456<-901 -651 1735 1985> -64 226<-651 1735>
LayerCount: 2
Fore
SplineSet
-64 1985 m 1xe0
 392 1985 l 1
 392 1735 l 1xe0
 162 1735 l 1
 162 -651 l 1xd0
 392 -651 l 1
 392 -901 l 1
 -64 -901 l 1
 -64 1985 l 1xe0
EndSplineSet
Validated: 1
EndChar

StartChar: backslash
Encoding: 92 92 57
Width: 946
VWidth: 2104
Flags: W
LayerCount: 2
Fore
SplineSet
61 2051 m 1
 962 -84 l 1
 761 -187 l 1
 -140 1948 l 1
 61 2051 l 1
EndSplineSet
Validated: 1
EndChar

StartChar: bracketright
Encoding: 93 93 58
Width: 465
VWidth: 2124
Flags: W
HStem: -901 250<-64 166> 1735 250<-64 166>
VStem: -64 456<-901 -651 1735 1985> 166 226<-651 1735>
LayerCount: 2
Fore
SplineSet
392 -901 m 1xe0
 -64 -901 l 1
 -64 -651 l 1xe0
 166 -651 l 1
 166 1735 l 1xd0
 -64 1735 l 1
 -64 1985 l 1
 392 1985 l 1
 392 -901 l 1xe0
EndSplineSet
Validated: 1
EndChar

StartChar: asciicircum
Encoding: 94 94 59
Width: 809
VWidth: 2065
Flags: W
HStem: 1481 463
LayerCount: 2
Fore
SplineSet
190 1481 m 1
 -135 1481 l 1
 342 1944 l 1
 816 1481 l 1
 490 1481 l 1
 342 1619 l 1
 190 1481 l 1
EndSplineSet
Validated: 1
EndChar

StartChar: underscore
Encoding: 95 95 60
Width: 954
VWidth: 2159
Flags: W
HStem: -262 244<-171 1001>
LayerCount: 2
Fore
SplineSet
-171 -18 m 1
 1001 -18 l 1
 1001 -262 l 1
 -171 -262 l 1
 -171 -18 l 1
EndSplineSet
Validated: 1
EndChar

StartChar: grave
Encoding: 96 96 61
Width: 457
VWidth: 2082
Flags: W
HStem: 1102 539
VStem: -84 488
LayerCount: 2
Fore
SplineSet
247 1102 m 1
 -84 1468 l 1
 73 1641 l 1
 404 1276 l 1
 247 1102 l 1
EndSplineSet
Validated: 1
EndChar

StartChar: exclam
Encoding: 33 33 63
Width: 318
VWidth: 2104
Flags: W
HStem: -101 336<-16.209 193.91> 1945 20G<-24 202>
VStem: -68 314<-48.102 193.771> -24 226<309 1965>
LayerCount: 2
Fore
SplineSet
143 235 m 1xe0
 151 232 157 229 165 224 c 0
 209 199 246 142 246 72 c 0
 246 2 210 -52 167 -79 c 0
 143 -94 117 -101 89 -101 c 0
 25 -101 -23 -61 -48 -14 c 0
 -61 12 -68 42 -68 72 c 0
 -68 142 -31 199 13 224 c 0
 21 229 27 232 35 235 c 1
 143 235 l 1xe0
-24 309 m 1xd0
 -24 1965 l 1
 202 1965 l 1
 202 309 l 1
 -24 309 l 1xd0
EndSplineSet
Validated: 1
EndChar

StartChar: quotedbl
Encoding: 34 34 64
Width: 545
VWidth: 2072
Flags: W
HStem: 1913 20G<-38 182 228 448>
VStem: -38 220<1207 1933> 228 220<1207 1933>
LayerCount: 2
Fore
SplineSet
-38 1207 m 1
 -38 1933 l 1
 182 1933 l 1
 182 1207 l 1
 -38 1207 l 1
228 1207 m 1
 228 1933 l 1
 448 1933 l 1
 448 1207 l 1
 228 1207 l 1
EndSplineSet
Validated: 1
EndChar

StartChar: braceleft
Encoding: 123 123 65
Width: 700
VWidth: 2124
Flags: W
HStem: 1965 20G<499.5 627>
VStem: 172 226<-582.384 345.02 737.203 1666.38>
LayerCount: 2
Fore
SplineSet
-58 414 m 1
 -58 666 l 1
 -16 672 l 2
 30 679 64 690 90 704 c 0
 110 716 123 727 132 740 c 0
 159 778 172 814 172 850 c 1
 172 1533 l 2
 172 1648 205 1750 270 1834 c 0
 338 1922 437 1970 562 1985 c 1
 627 1985 l 1
 627 1737 l 1
 585 1731 l 2
 539 1724 505 1713 479 1699 c 0
 459 1687 446 1676 437 1663 c 0
 410 1625 398 1590 398 1554 c 1
 398 849 l 2
 398 747 364 651 300 569 c 0
 292 558 284 549 275 540 c 1
 284 531 292 521 300 510 c 0
 364 428 398 336 398 236 c 2
 398 -470 l 1
 398 -506 410 -541 437 -579 c 0
 446 -592 459 -603 479 -615 c 0
 505 -629 539 -640 585 -647 c 2
 627 -653 l 1
 627 -901 l 1
 562 -901 l 1
 437 -886 338 -838 270 -750 c 0
 205 -666 172 -564 172 -449 c 2
 172 235 l 1
 172 267 160 301 132 340 c 0
 123 353 110 364 90 376 c 0
 64 390 30 400 -16 407 c 2
 -58 414 l 1
EndSplineSet
Validated: 1
EndChar

StartChar: bar
Encoding: 124 124 66
Width: 223
VWidth: 2123
Flags: W
HStem: 2001 20G<-70 150>
VStem: -70 220<-871 2021>
LayerCount: 2
Fore
SplineSet
-70 2021 m 1
 150 2021 l 1
 150 -871 l 1
 -70 -871 l 1
 -70 2021 l 1
EndSplineSet
Validated: 1
EndChar

StartChar: braceright
Encoding: 125 125 67
Width: 700
VWidth: 2124
Flags: W
HStem: 1965 20G<-58 69.5>
VStem: 171 226<-582.384 345.02 737.203 1666.38>
LayerCount: 2
Fore
SplineSet
627 666 m 1
 627 414 l 1
 585 407 l 2
 539 400 505 390 479 376 c 0
 459 364 446 353 437 340 c 0
 409 301 397 267 397 235 c 1
 397 -449 l 2
 397 -564 364 -666 299 -750 c 0
 231 -838 132 -886 7 -901 c 1
 -58 -901 l 1
 -58 -653 l 1
 -16 -647 l 2
 30 -640 64 -629 90 -615 c 0
 110 -603 123 -592 132 -579 c 0
 159 -541 171 -506 171 -470 c 1
 171 236 l 2
 171 336 205 428 269 510 c 0
 277 521 285 531 294 540 c 1
 285 549 277 558 269 569 c 0
 205 651 171 747 171 849 c 2
 171 1554 l 1
 171 1590 159 1625 132 1663 c 0
 123 1676 110 1687 90 1699 c 0
 64 1713 30 1724 -16 1731 c 2
 -58 1737 l 1
 -58 1985 l 1
 7 1985 l 1
 132 1970 231 1922 299 1834 c 0
 364 1750 397 1648 397 1533 c 2
 397 850 l 1
 397 814 410 778 437 740 c 0
 446 727 459 716 479 704 c 0
 505 690 539 679 585 672 c 2
 627 666 l 1
EndSplineSet
Validated: 1
EndChar

StartChar: asciitilde
Encoding: 126 126 68
Width: 1089
VWidth: 2113
Flags: W
HStem: 599 236<535.605 809.406> 699 236<161.784 432.395>
LayerCount: 2
Fore
SplineSet
211 935 m 0x40
 271 935 369 918 516 884 c 0
 597 865 660 853 704 845 c 0
 738 839 762 835 769 835 c 0
 782 838 791 844 800 858 c 0
 806 867 810 876 810 884 c 2
 810 957 l 1
 1025 869 l 1
 1016 824 l 2
 1000 745 952 677 896 640 c 0
 870 623 841 611 811 605 c 0
 794 601 777 599 757 599 c 0x80
 697 599 599 616 452 650 c 0
 371 669 308 681 264 689 c 0
 230 695 206 699 199 699 c 0
 186 696 177 690 168 676 c 0
 162 667 161 658 161 650 c 2
 161 577 l 1
 -57 665 l 1
 -48 710 l 2
 -32 789 16 857 72 894 c 0
 98 911 127 923 157 929 c 0
 174 933 191 935 211 935 c 0x40
EndSplineSet
Validated: 1
EndChar

StartChar: a
Encoding: 97 97 69
Width: 1016
VWidth: 2164
Flags: HW
HStem: 429 178<337 610>
LayerCount: 2
Fore
SplineSet
274 429 m 1
 116 12 l 5
 -59 12 l 1
 473 1507 l 1
 1006 12 l 1
 832 12 l 1
 673 429 l 1
 274 429 l 1
473 995 m 1
 337 607 l 1
 610 607 l 1
 473 995 l 1
EndSplineSet
EndChar

StartChar: b
Encoding: 98 98 70
Width: 1106
VWidth: 2166
Flags: HW
HStem: 14 179<176 684.902> 821 179<176 514.104> 1234 179<176 479>
VStem: 14 162<193 821 1000 1234> 556 175<1031.26 1211.76> 843 160<347.536 662.732>
LayerCount: 2
Fore
SplineSet
474 821 m 1
 176 821 l 1
 176 193 l 1
 531 193 l 1
 614 193 684 227 745 284 c 0
 812 346 843 419 843 506 c 0
 843 593 812 666 745 728 c 0
 679 789 604 821 512 821 c 1
 474 821 l 1
176 1234 m 1
 176 1000 l 1
 436 1000 l 1
 470 1005 496 1016 515 1032 c 0
 543 1055 556 1084 556 1124 c 0
 556 1166 541 1194 512 1212 c 0
 490 1226 455 1234 406 1234 c 2
 176 1234 l 1
572 18 m 1
 572 14 l 1
 14 14 l 1
 14 1413 l 1
 479 1413 l 1
 479 1409 l 1
 548 1398 607 1371 653 1326 c 0
 705 1272 731 1204 731 1125 c 0
 731 1062 714 1004 680 955 c 1
 750 932 816 893 868 840 c 0
 957 746 1003 631 1003 499 c 0
 1003 367 957 251 868 156 c 0
 788 77 686 18 572 18 c 1
EndSplineSet
EndChar

StartChar: c
Encoding: 99 99 71
Width: 1498
VWidth: 2166
Flags: HW
HStem: 7 175<505.386 938.69> 1238 187<504.31 933.726>
VStem: 8 169<505.701 916.865>
LayerCount: 2
Fore
SplineSet
152 282 m 1
 57 410 8 554 8 710 c 0
 8 742 9 771 13 804 c 0
 36 996 123 1155 277 1275 c 0
 407 1375 553 1425 713 1425 c 0
 745 1425 778 1423 811 1419 c 0
 904 1406 991 1378 1072 1333 c 2
 1116 1308 l 1
 981 1171 l 1
 958 1183 l 2
 904 1209 847 1226 787 1233 c 0
 762 1236 738 1238 714 1238 c 0
 594 1238 486 1202 387 1127 c 0
 267 1037 200 921 182 776 c 0
 179 752 177 705 177 704 c 0
 177 587 215 484 293 387 c 0
 385 271 504 205 653 186 c 0
 678 183 725 182 727 182 c 0
 847 182 956 218 1055 293 c 0
 1153 368 1217 462 1247 578 c 1
 1254 605 l 1
 1426 605 l 1
 1418 562 l 1
 1383 397 1299 261 1165 156 c 0
 1036 57 889 7 729 7 c 0
 697 7 664 10 631 14 c 0
 434 38 273 129 152 282 c 1
EndSplineSet
EndChar

StartChar: d
Encoding: 100 100 72
Width: 986
VWidth: 2166
Flags: HW
HStem: 14 143<155 351.509> 1270 146<155 361.548>
VStem: -7 162<157 1270> 685 163<492.104 943.238>
LayerCount: 2
Fore
SplineSet
155 1270 m 1
 155 157 l 1
 300 157 421 219 522 319 c 0
 632 428 685 558 685 714 c 0
 685 870 634 1001 527 1113 c 0
 471 1172 405 1213 333 1239 c 0
 279 1258 220 1270 155 1270 c 1
-7 14 m 1
 -7 1416 l 1
 144 1416 l 1
 360 1416 538 1338 665 1213 c 1
 789 1075 848 906 848 714 c 0
 848 521 788 352 662 219 c 1
 534 99 365 14 165 14 c 5
 -7 14 l 1
EndSplineSet
EndChar

StartChar: e
Encoding: 101 101 73
Width: 867
VWidth: 2166
Flags: HW
HStem: 14 179<154 827> 426 180<154 370> 1234 179<154 827>
VStem: -8 162<193 426 606 1234>
LayerCount: 2
Fore
SplineSet
-8 1413 m 1
 827 1413 l 1
 827 1234 l 1
 154 1234 l 1
 154 606 l 1
 370 606 l 1
 370 426 l 1
 154 426 l 1
 154 193 l 1
 827 193 l 1
 827 14 l 5
 -8 14 l 1
 -8 1413 l 1
EndSplineSet
EndChar

StartChar: f
Encoding: 102 102 74
Width: 648
VWidth: 2166
Flags: HW
HStem: 14 21G<22 184> 429 180<184 438> 1234 179<184 613>
VStem: 22 162<14 429 609 1234>
LayerCount: 2
Fore
SplineSet
184 1234 m 1
 184 609 l 1
 438 609 l 1
 438 429 l 1
 184 429 l 1
 184 14 l 1
 22 14 l 1
 22 1413 l 1
 613 1413 l 1
 613 1234 l 1
 184 1234 l 1
EndSplineSet
EndChar

StartChar: g
Encoding: 103 103 75
Width: 1461
VWidth: 2166
Flags: HW
HStem: 7 148<522.831 947.244> 425 180<873 1201> 1238 187<518.31 947.819>
VStem: 23 169<486.961 916.341>
LayerCount: 2
Fore
SplineSet
166 282 m 1
 71 410 23 554 23 710 c 0
 23 742 24 771 28 804 c 0
 51 996 137 1155 291 1275 c 0
 421 1375 567 1425 727 1425 c 0
 759 1425 792 1423 825 1419 c 0
 918 1406 1005 1378 1087 1333 c 2
 1131 1308 l 1
 996 1171 l 1
 973 1183 l 2
 919 1209 861 1226 801 1233 c 0
 776 1236 752 1238 728 1238 c 0
 608 1238 501 1201 401 1125 c 0
 282 1034 216 916 197 769 c 0
 194 745 192 698 192 697 c 0
 192 578 229 471 307 372 c 0
 399 249 518 180 667 160 c 0
 693 157 740 155 742 155 c 0
 863 155 970 194 1069 274 c 0
 1124 318 1168 368 1201 425 c 1
 873 425 l 1
 873 605 l 1
 1441 605 l 1
 1432 560 l 2
 1397 396 1314 261 1180 156 c 0
 1051 57 903 7 743 7 c 0
 711 7 679 10 646 14 c 0
 449 38 287 129 166 282 c 1
EndSplineSet
EndChar

StartChar: h
Encoding: 104 104 76
Width: 979
VWidth: 2166
Flags: HW
HStem: 14 21G<10 172 683 845> 428 180<172 683> 1393 20G<10 172 683 845> 1393 20G<10 172 683 845>
VStem: 10 162<14 428 608 1413> 683 162<14 428 608 1413>
LayerCount: 2
Fore
SplineSet
845 1413 m 1xec
 845 14 l 1
 683 14 l 1
 683 428 l 1
 172 428 l 1
 172 14 l 1
 10 14 l 1
 10 1413 l 1
 172 1413 l 1
 172 608 l 1
 683 608 l 1
 683 1413 l 1
 845 1413 l 1xec
EndSplineSet
EndChar

StartChar: i
Encoding: 105 105 77
Width: 230
VWidth: 2166
Flags: HW
HStem: 14 21G<-7 155> 1393 20G<-7 155> 1393 20G<-7 155>
VStem: -7 162<14 1413>
LayerCount: 2
Fore
SplineSet
155 14 m 1xd0
 -7 14 l 1
 -7 1413 l 1
 155 1413 l 1
 155 14 l 1xd0
EndSplineSet
EndChar

StartChar: j
Encoding: 106 106 78
Width: 448
VWidth: 2172
Flags: HW
HStem: -231 178<-201.961 82.276> -19 20G<-197.828 -163> 1399 20G<123 286>
VStem: 123 163<-12.9375 1419>
LayerCount: 2
Fore
SplineSet
51 -29 m 0
 101 -7 123 34 123 95 c 2
 123 1419 l 1
 286 1419 l 1
 286 90 l 2
 286 42 279 -4 265 -44 c 0
 247 -95 216 -139 175 -171 c 0
 124 -211 41 -231 -49 -231 c 0
 -87 -231 -119 -228 -146 -222 c 0
 -181 -214 -214 -197 -243 -176 c 2
 -272 -156 l 1
 -187 1 l 1
 -157 -24 l 2
 -144 -35 -130 -42 -115 -46 c 0
 -97 -50 -77 -53 -57 -53 c 0
 -20 -53 16 -46 51 -29 c 0
EndSplineSet
EndChar

StartChar: k
Encoding: 107 107 79
Width: 1218
VWidth: 2166
Flags: HW
HStem: 14 21G<29 186.424 989 1152> 1393 20G<29 191 817.25 1015> 1393 20G<29 191 817.25 1015>
VStem: 29 162<327 1413> 989 163<14 351.644>
LayerCount: 2
Fore
SplineSet
939 644 m 1xd8
 1082 499 1152 320 1152 116 c 2
 1152 14 l 1
 989 14 l 1
 989 122 l 2
 989 289 932 430 814 550 c 0
 741 624 659 674 568 702 c 1
 175 14 l 1
 29 14 l 1
 29 1413 l 1
 191 1413 l 1
 191 327 l 1
 829 1413 l 1
 1015 1413 l 1
 670 816 l 1
 776 780 868 723 939 644 c 1xd8
EndSplineSet
EndChar

StartChar: l
Encoding: 108 108 80
Width: 647
VWidth: 2166
Flags: HW
HStem: 14 179<198 627> 1393 20G<36 198> 1393 20G<36 198>
VStem: 36 162<193 1413>
LayerCount: 2
Fore
SplineSet
198 193 m 1xd0
 627 193 l 1
 627 14 l 1
 36 14 l 1
 36 1413 l 1
 198 1413 l 1
 198 193 l 1xd0
EndSplineSet
EndChar

StartChar: m
Encoding: 109 109 81
Width: 1345
VWidth: 2166
Flags: HW
HStem: 14 21G<24 190 1042 1208> 1393 20G<24 130.682 1102.76 1208> 1393 20G<24 130.682 1102.76 1208>
VStem: 24 166<14 1007> 1042 166<14 1002>
LayerCount: 2
Fore
SplineSet
1114 1413 m 1xd8
 1208 1413 l 1
 1208 14 l 1
 1042 14 l 1
 1042 1002 l 1
 626 268 l 1
 190 1007 l 1
 190 14 l 1
 24 14 l 1
 24 1413 l 1
 119 1413 l 1
 626 545 l 1
 1114 1413 l 1xd8
EndSplineSet
EndChar

StartChar: n
Encoding: 110 110 82
Width: 949
VWidth: 2166
Flags: HW
HStem: 14 21G<14 176 742.095 849> 1393 20G<677 849> 1393 20G<677 849>
VStem: 14 162<14 985> 677 172<426 1413>
LayerCount: 2
Fore
SplineSet
677 426 m 1xd8
 677 1413 l 1
 849 1413 l 1
 849 14 l 1
 754 14 l 1
 176 985 l 1
 176 14 l 1
 14 14 l 1
 14 1401 l 1
 105 1401 l 1
 677 426 l 1xd8
EndSplineSet
EndChar

StartChar: o
Encoding: 111 111 83
Width: 1553
VWidth: 2166
Flags: HW
HStem: -33 189<528.677 985.582> 1276 188<532.374 986.385>
VStem: 9 171<495.043 935.366> 1334 169<495.438 935.366>
LayerCount: 2
Fore
SplineSet
1166 1111 m 0
 1053 1222 918 1276 757 1276 c 0
 598 1276 463 1222 350 1111 c 0
 236 1000 180 870 180 716 c 0
 180 560 236 430 350 320 c 0
 463 210 597 156 757 156 c 0
 918 156 1053 210 1166 320 c 0
 1279 430 1334 560 1334 716 c 0
 1334 870 1279 1000 1166 1111 c 0
1291 1245 m 0
 1433 1099 1503 921 1503 716 c 0
 1503 510 1438 332 1291 186 c 0
 1147 43 979 -33 756 -33 c 16
 533 -33 369 40 222 186 c 0
 78 329 9 510 9 716 c 0
 9 921 80 1099 222 1245 c 1
 369 1391 549 1464 756 1464 c 0
 964 1464 1145 1391 1291 1245 c 0
EndSplineSet
EndChar

StartChar: p
Encoding: 112 112 84
Width: 1078
VWidth: 2166
Flags: HW
HStem: 14 21G<11 173> 429 180<173 671.054> 1234 179<173 680.902>
VStem: 11 162<14 429 609 1234> 839 160<766.543 1078.2>
LayerCount: 2
Fore
SplineSet
173 1234 m 1
 173 609 l 1
 470 609 l 1
 470 611 l 1
 508 611 l 1
 599 611 675 642 741 702 c 0
 808 764 839 836 839 923 c 0
 839 1009 808 1082 741 1144 c 0
 680 1201 610 1234 527 1234 c 2
 173 1234 l 1
864 1269 m 0
 953 1173 999 1057 999 922 c 0
 999 787 953 670 864 575 c 0
 784 495 682 436 568 436 c 1
 568 429 l 1
 173 429 l 1
 173 14 l 1
 11 14 l 1
 11 1413 l 1
 568 1413 l 1
 568 1409 l 1
 682 1409 784 1349 864 1269 c 0
EndSplineSet
EndChar

StartChar: q
Encoding: 113 113 85
Width: 1655
VWidth: 2168
Flags: HW
HStem: -111 175<1141.77 1290> -31 182<611.46 783.363> 186 101<608 781.832> 1284 182<551.604 997.649>
VStem: 27 164<455.699 911.494> 1358 163<459.502 915.07>
LayerCount: 2
Fore
SplineSet
240 1247 m 0x7c
 387 1392 567 1466 774 1466 c 0
 982 1466 1162 1393 1309 1248 c 1
 1450 1103 1521 925 1521 720 c 0
 1521 515 1450 337 1309 192 c 0
 1257 141 1201 99 1140 65 c 1
 1146 64 1151 64 1157 64 c 0
 1175 64 1195 68 1217 73 c 0
 1269 86 1307 113 1335 157 c 0
 1340 164 1343 172 1347 180 c 2
 1366 223 l 1
 1504 107 l 1
 1495 92 1488 78 1479 63 c 0
 1430 -21 1356 -77 1259 -100 c 0
 1228 -107 1197 -111 1167 -111 c 0xbc
 1113 -111 1060 -99 1011 -76 c 0
 1001 -71 991 -65 981 -60 c 0
 958 -46 937 -33 920 -18 c 1
 873 -27 824 -31 774 -31 c 0
 671 -31 575 -13 487 25 c 0
 442 43 400 67 359 93 c 0
 317 121 278 153 240 190 c 0
 98 335 27 514 27 719 c 0
 27 924 98 1102 240 1247 c 0x7c
675 186 m 0
 654 186 627 181 608 175 c 1
 660 159 715 151 774 151 c 0
 778 151 780 151 784 151 c 1x7c
 780 154 776 157 771 160 c 0
 740 178 707 186 675 186 c 0
1188 252 m 0
 1302 371 1358 511 1358 679 c 0
 1358 846 1303 987 1188 1107 c 0
 1074 1227 937 1284 774 1284 c 0
 612 1284 477 1227 362 1107 c 0
 247 987 191 847 191 680 c 0
 191 512 247 371 362 252 c 0
 382 231 403 213 424 196 c 1
 468 235 521 260 582 275 c 0
 614 283 646 287 676 287 c 0
 730 287 782 274 831 251 c 0
 841 246 851 241 861 236 c 0
 886 222 940 182 988 114 c 1
 1061 143 1127 189 1188 252 c 0
EndSplineSet
EndChar

StartChar: r
Encoding: 114 114 86
Width: 1034
VWidth: 2166
Flags: HW
HStem: 14 21G<-4 158 782.277 982> 429 180<158 531> 1234 179<158 668.265>
VStem: -4 162<14 429 609 1234> 824 160<762.022 1082.07>
LayerCount: 2
Fore
SplineSet
158 1234 m 1
 158 609 l 1
 457 609 l 1
 457 611 l 1
 495 611 l 1
 587 611 663 642 729 702 c 0
 796 764 824 836 824 923 c 0
 824 1009 796 1082 729 1144 c 0
 668 1201 599 1234 515 1234 c 2
 158 1234 l 1
712 492 m 1
 982 14 l 1
 795 14 l 1
 531 429 l 1
 158 429 l 1
 158 14 l 1
 -4 14 l 1
 -4 1413 l 1
 555 1413 l 1
 555 1409 l 1
 670 1409 771 1350 849 1271 c 0
 938 1177 984 1061 984 929 c 0
 984 797 938 683 849 589 c 0
 810 548 764 515 712 492 c 1
EndSplineSet
EndChar

StartChar: s
Encoding: 115 115 87
Width: 810
VWidth: 2166
Flags: HW
HStem: -17 186<68.9238 297.654> 1258 185<413.346 642.985>
VStem: 164 193<899.225 1203.82> 354 193<225.018 524.305>
LayerCount: 2
Fore
SplineSet
646 1211 m 2xe0
 614 1245 577 1258 535 1258 c 2
 528 1258 l 1
 479 1258 439 1241 406 1209 c 0
 372 1177 364 1113 357 1098 c 1xe0
 357 1093 358 1081 361 1065 c 0
 365 1045 369 1017 378 983 c 0
 426 804 476 627 524 448 c 0
 540 387 547 348 547 322 c 1
 547 233 510 153 441 88 c 0
 369 20 278 -17 171 -17 c 0
 80 -17 7 16 -53 81 c 1
 -78 108 l 1
 40 243 l 1
 66 216 l 2
 97 183 134 169 176 169 c 2
 183 169 l 1
 232 169 271 186 304 218 c 0
 337 250 354 286 354 329 c 0xd0
 354 342 350 381 334 438 c 0
 274 652 226 814 198 926 c 0
 186 976 178 1017 172 1047 c 0
 167 1071 164 1089 164 1104 c 0
 164 1193 201 1273 270 1338 c 0
 342 1406 433 1443 540 1443 c 0
 632 1443 705 1410 765 1346 c 1
 790 1318 l 1
 671 1185 l 1
 646 1211 l 2xe0
EndSplineSet
EndChar

StartChar: t
Encoding: 116 116 88
Width: 608
VWidth: 2166
Flags: HW
HStem: 14 21G<166 328> 1234 179<-49 166 328 543>
VStem: 166 162<14 1234>
LayerCount: 2
Fore
SplineSet
166 14 m 1
 166 1234 l 1
 -49 1234 l 1
 -49 1413 l 1
 543 1413 l 1
 543 1234 l 1
 328 1234 l 1
 328 14 l 1
 166 14 l 1
EndSplineSet
EndChar

StartChar: u
Encoding: 117 117 89
Width: 1054
VWidth: 2167
Flags: HW
HStem: -18 177<301.151 637.914> 1394 20G<-5 156 775 937> 1394 20G<-5 156 775 937>
VStem: -5 161<297.414 1414> 775 162<290.891 1414>
LayerCount: 2
Fore
SplineSet
500 -18 m 0xd8
 435 -18 l 2
 323 -18 215 26 121 109 c 0
 120 110 119 112 118 113 c 0
 44 200 -5 306 -5 427 c 2
 -5 1414 l 1
 156 1414 l 1
 156 453 l 1
 156 368 188 298 243 238 c 1
 311 183 414 168 437 159 c 1
 498 159 l 2
 559 159 623 183 691 238 c 1
 741 294 775 358 775 436 c 2
 775 1414 l 1
 937 1414 l 1
 937 391 l 1
 933 391 l 1
 922 285 883 192 816 113 c 0
 815 112 814 110 813 109 c 0
 729 14 518 -18 500 -18 c 0xd8
EndSplineSet
EndChar

StartChar: v
Encoding: 118 118 90
Width: 1026
VWidth: 2168
Flags: HW
HStem: 1395 20G<-66 115.979 817.981 999>
LayerCount: 2
Fore
SplineSet
466 -82 m 1
 -66 1415 l 1
 109 1415 l 1
 466 392 l 1
 825 1415 l 1
 999 1415 l 1
 466 -82 l 1
EndSplineSet
EndChar

StartChar: w
Encoding: 119 119 91
Width: 1817
VWidth: 2168
Flags: HW
HStem: 1395 20G<-45 142.716 431 619.005 1614.01 1800>
LayerCount: 2
Fore
SplineSet
680 -58 m 1
 -45 1415 l 1
 133 1415 l 1
 680 289 l 1
 803 559 l 1
 431 1415 l 1
 610 1415 l 1
 1117 289 l 1
 1623 1415 l 1
 1800 1415 l 1
 1117 -58 l 1
 899 425 l 1
 680 -58 l 1
EndSplineSet
EndChar

StartChar: x
Encoding: 120 120 92
Width: 1213
VWidth: 2166
Flags: HW
HStem: 14 21G<189 387.476 761.461 960> 1393 20G<-67 130.361 1017.64 1215> 1393 20G<-67 130.361 1017.64 1215>
LayerCount: 2
Fore
SplineSet
574 333 m 1xc0
 375 14 l 1
 189 14 l 1
 461 485 l 1
 -67 1413 l 1
 119 1413 l 1
 574 612 l 1
 1029 1413 l 1
 1215 1413 l 1
 687 485 l 1
 960 14 l 1
 774 14 l 1
 574 333 l 1xc0
EndSplineSet
EndChar

StartChar: y
Encoding: 121 121 93
Width: 1213
VWidth: 2166
Flags: HW
HStem: 14 21G<487 662> 1393 20G<-67 131.361 1017.66 1216> 1393 20G<-67 131.361 1017.66 1216>
VStem: 487 175<14 474>
LayerCount: 2
Fore
SplineSet
662 14 m 1xd0
 487 14 l 1
 487 474 l 1
 -67 1413 l 1
 120 1413 l 1
 575 612 l 1
 1029 1413 l 1
 1216 1413 l 1
 662 474 l 1
 662 14 l 1xd0
EndSplineSet
EndChar

StartChar: z
Encoding: 122 122 94
Width: 1002
VWidth: 2166
Flags: HW
HStem: 14 180<234 902> 1234 179<-22 640>
LayerCount: 2
Fore
SplineSet
234 194 m 1
 902 194 l 1
 902 14 l 1
 -22 14 l 1
 -22 63 l 1
 640 1234 l 1
 -22 1234 l 1
 -22 1413 l 1
 925 1413 l 1
 234 194 l 1
EndSplineSet
EndChar

StartChar: f_f
Encoding: 256 64256 95
Width: 1211
VWidth: 2118
UnlinkRmOvrlpSave: 1
Flags: W
HStem: -34 21G<467 629 655 817> 381 180<213 467 817 1071> 1186 179<38 467 817 1246>
VStem: 467 162<-34 381 561 1186> 655 162<-34 381 561 1186>
LayerCount: 2
Fore
SplineSet
817 1186 m 1
 817 561 l 1
 1071 561 l 1
 1071 381 l 1
 817 381 l 1
 817 -34 l 1
 655 -34 l 1
 655 1365 l 1
 1246 1365 l 1
 1246 1186 l 1
 817 1186 l 1
467 1186 m 1
 38 1186 l 1
 38 1365 l 1
 629 1365 l 1
 629 -34 l 1
 467 -34 l 1
 467 381 l 1
 213 381 l 1
 213 561 l 1
 467 561 l 1
 467 1186 l 1
EndSplineSet
LCarets2: 1 36
Ligature2: "Latin Ligatures-1" f f
EndChar
